<svg width="167" height="287" viewBox="0 0 167 287" fill="none" xmlns="http://www.w3.org/2000/svg">
<g opacity="0.1">
<circle cx="163.5" cy="283.5" r="2.5" transform="rotate(180 163.5 283.5)" stroke="white" stroke-width="2"/>
<circle cx="123.5" cy="283.5" r="2.5" transform="rotate(180 123.5 283.5)" stroke="white" stroke-width="2"/>
<circle cx="83.5002" cy="283.5" r="2.5" transform="rotate(180 83.5002 283.5)" stroke="white" stroke-width="2"/>
<circle cx="43.5002" cy="283.5" r="2.5" transform="rotate(180 43.5002 283.5)" stroke="white" stroke-width="2"/>
<circle cx="3.50015" cy="283.5" r="2.5" transform="rotate(180 3.50015 283.5)" stroke="white" stroke-width="2"/>
<circle cx="163.5" cy="243.5" r="2.5" transform="rotate(180 163.5 243.5)" stroke="white" stroke-width="2"/>
<circle cx="123.5" cy="243.5" r="2.5" transform="rotate(180 123.5 243.5)" stroke="white" stroke-width="2"/>
<circle cx="83.5002" cy="243.5" r="2.5" transform="rotate(180 83.5002 243.5)" stroke="white" stroke-width="2"/>
<circle cx="43.5002" cy="243.5" r="2.5" transform="rotate(180 43.5002 243.5)" stroke="white" stroke-width="2"/>
<circle cx="3.50015" cy="243.5" r="2.5" transform="rotate(180 3.50015 243.5)" stroke="white" stroke-width="2"/>
<circle cx="163.5" cy="203.5" r="2.5" transform="rotate(180 163.5 203.5)" stroke="white" stroke-width="2"/>
<circle cx="123.5" cy="203.5" r="2.5" transform="rotate(180 123.5 203.5)" stroke="white" stroke-width="2"/>
<circle cx="83.5002" cy="203.5" r="2.5" transform="rotate(180 83.5002 203.5)" stroke="white" stroke-width="2"/>
<circle cx="43.5002" cy="203.5" r="2.5" transform="rotate(180 43.5002 203.5)" stroke="white" stroke-width="2"/>
<circle cx="3.50014" cy="203.5" r="2.5" transform="rotate(180 3.50014 203.5)" stroke="white" stroke-width="2"/>
<circle cx="163.5" cy="163.5" r="2.5" transform="rotate(180 163.5 163.5)" stroke="white" stroke-width="2"/>
<circle cx="123.5" cy="163.5" r="2.5" transform="rotate(180 123.5 163.5)" stroke="white" stroke-width="2"/>
<circle cx="83.5002" cy="163.5" r="2.5" transform="rotate(180 83.5002 163.5)" stroke="white" stroke-width="2"/>
<circle cx="43.5002" cy="163.5" r="2.5" transform="rotate(180 43.5002 163.5)" stroke="white" stroke-width="2"/>
<circle cx="3.50014" cy="163.5" r="2.5" transform="rotate(180 3.50014 163.5)" stroke="white" stroke-width="2"/>
<circle cx="163.5" cy="123.5" r="2.5" transform="rotate(180 163.5 123.5)" stroke="white" stroke-width="2"/>
<circle cx="163.5" cy="83.5001" r="2.5" transform="rotate(180 163.5 83.5001)" stroke="white" stroke-width="2"/>
<circle cx="163.5" cy="43.5001" r="2.5" transform="rotate(180 163.5 43.5001)" stroke="white" stroke-width="2"/>
<circle cx="163.5" cy="3.50012" r="2.5" transform="rotate(180 163.5 3.50012)" stroke="white" stroke-width="2"/>
<circle cx="123.5" cy="123.5" r="2.5" transform="rotate(180 123.5 123.5)" stroke="white" stroke-width="2"/>
<circle cx="123.5" cy="83.5001" r="2.5" transform="rotate(180 123.5 83.5001)" stroke="white" stroke-width="2"/>
<circle cx="123.5" cy="43.5001" r="2.5" transform="rotate(180 123.5 43.5001)" stroke="white" stroke-width="2"/>
<circle cx="123.5" cy="3.50012" r="2.5" transform="rotate(180 123.5 3.50012)" stroke="white" stroke-width="2"/>
<circle cx="83.5002" cy="123.5" r="2.5" transform="rotate(180 83.5002 123.5)" stroke="white" stroke-width="2"/>
<circle cx="83.5002" cy="83.5001" r="2.5" transform="rotate(180 83.5002 83.5001)" stroke="white" stroke-width="2"/>
<circle cx="83.5002" cy="43.5001" r="2.5" transform="rotate(180 83.5002 43.5001)" stroke="white" stroke-width="2"/>
<circle cx="83.5002" cy="3.50012" r="2.5" transform="rotate(180 83.5002 3.50012)" stroke="white" stroke-width="2"/>
<circle cx="43.5002" cy="123.5" r="2.5" transform="rotate(180 43.5002 123.5)" stroke="white" stroke-width="2"/>
<circle cx="43.5002" cy="83.5001" r="2.5" transform="rotate(180 43.5002 83.5001)" stroke="white" stroke-width="2"/>
<circle cx="43.5002" cy="43.5001" r="2.5" transform="rotate(180 43.5002 43.5001)" stroke="white" stroke-width="2"/>
<circle cx="43.5001" cy="3.50012" r="2.5" transform="rotate(180 43.5001 3.50012)" stroke="white" stroke-width="2"/>
<circle cx="3.50014" cy="123.5" r="2.5" transform="rotate(180 3.50014 123.5)" stroke="white" stroke-width="2"/>
<circle cx="3.50015" cy="83.5001" r="2.5" transform="rotate(180 3.50015 83.5001)" stroke="white" stroke-width="2"/>
<circle cx="3.50014" cy="43.5001" r="2.5" transform="rotate(180 3.50014 43.5001)" stroke="white" stroke-width="2"/>
<circle cx="3.50008" cy="3.50006" r="2.5" transform="rotate(180 3.50008 3.50006)" stroke="white" stroke-width="2"/>
</g>
</svg>
